<?xml version="1.0" encoding="UTF-8"?>
<svg xmlns="http://www.w3.org/2000/svg" xmlns:xlink="http://www.w3.org/1999/xlink" width="16pt" height="16pt" viewBox="0 0 16 16" version="1.1">
<g id="surface1">
<path style=" stroke:none; fill-rule:nonzero; fill:white; fill-opacity:1;" d="M 0.847656 1.515625 C -0.394531 3.375 -0.320312 6.960938 1.964844 9.503906 C 4.082031 11.863281 7.242188 14.484375 7.269531 14.507812 C 7.335938 14.566406 8.957031 16.015625 11.34375 16.015625 C 11.574219 16.015625 11.808594 16 12.042969 15.972656 C 14.632812 15.660156 15.582031 14 15.917969 13.035156 C 16.09375 12.539062 15.800781 11.925781 15.28125 11.695312 L 12.238281 10.34375 C 12.09375 10.277344 11.917969 10.242188 11.734375 10.242188 C 11.359375 10.242188 10.980469 10.382812 10.75 10.609375 L 9.792969 11.535156 C 9.648438 11.675781 9.398438 11.765625 9.160156 11.765625 C 9.0625 11.765625 8.972656 11.75 8.90625 11.714844 C 8.257812 11.390625 7.242188 10.742188 6.070312 9.5 C 5.03125 8.398438 4.535156 7.640625 4.304688 7.199219 C 4.175781 6.953125 4.3125 6.527344 4.515625 6.324219 L 5.367188 5.472656 C 5.722656 5.117188 5.882812 4.464844 5.730469 3.988281 L 4.769531 0.941406 C 4.625 0.480469 4.132812 0 3.558594 0 C 2.765625 0.0273438 1.648438 0.3125 0.847656 1.515625 Z M 3.589844 0.542969 C 3.863281 0.542969 4.171875 0.847656 4.253906 1.105469 L 5.210938 4.152344 C 5.300781 4.4375 5.195312 4.875 4.984375 5.089844 L 4.128906 5.941406 C 3.78125 6.289062 3.574219 6.980469 3.824219 7.453125 C 4.070312 7.921875 4.59375 8.722656 5.675781 9.875 C 6.902344 11.171875 7.976562 11.855469 8.664062 12.199219 C 8.804688 12.269531 8.976562 12.308594 9.164062 12.308594 C 9.539062 12.308594 9.925781 12.160156 10.167969 11.925781 L 11.128906 10.996094 C 11.320312 10.8125 11.773438 10.730469 12.019531 10.839844 L 15.0625 12.191406 C 15.292969 12.292969 15.492188 12.605469 15.40625 12.855469 C 15.113281 13.699219 14.277344 15.15625 11.976562 15.433594 C 11.765625 15.457031 11.554688 15.472656 11.34375 15.472656 C 9.191406 15.472656 7.691406 14.152344 7.625 14.09375 C 7.59375 14.070312 4.449219 11.457031 2.367188 9.140625 C 0.324219 6.863281 0.164062 3.515625 1.296875 1.816406 C 1.972656 0.804688 2.914062 0.566406 3.589844 0.542969 Z M 3.589844 0.542969 "/>
</g>
</svg>
