<?xml version="1.0" standalone="no"?>
<!DOCTYPE svg PUBLIC "-//W3C//DTD SVG 20010904//EN"
 "http://www.w3.org/TR/2001/REC-SVG-20010904/DTD/svg10.dtd">
<svg version="1.0" xmlns="http://www.w3.org/2000/svg"
 width="512.000000pt" height="512.000000pt" viewBox="0 0 512.000000 512.000000"
 preserveAspectRatio="xMidYMid meet">

<g transform="translate(0.000000,512.000000) scale(0.100000,-0.100000)"
fill="#000000" stroke="none">
<path d="M3286 4919 c-357 -49 -680 -183 -961 -398 -143 -109 -339 -319 -443
-474 -126 -186 -201 -349 -285 -622 -107 -344 -145 -528 -232 -1125 -54 -368
-77 -494 -111 -601 -18 -56 -28 -77 -38 -73 -8 3 -27 -1 -43 -10 -15 -8 -243
-230 -505 -493 -413 -414 -478 -483 -478 -508 0 -25 31 -60 198 -227 167 -167
202 -198 227 -198 25 0 94 65 508 478 263 262 485 490 493 505 9 16 13 35 10
43 -4 10 18 21 79 39 117 36 228 56 630 115 563 83 762 124 1090 226 344 108
554 217 782 408 637 531 888 1384 606 2066 -124 302 -365 561 -662 710 -88 44
-279 106 -386 125 -107 20 -382 28 -479 14z m413 -145 c534 -78 947 -469 1063
-1007 32 -150 32 -425 0 -586 -75 -373 -257 -700 -539 -971 -145 -140 -265
-223 -463 -323 -191 -96 -302 -138 -444 -169 -138 -30 -476 -33 -606 -5 -308
66 -567 224 -745 452 -203 262 -284 526 -272 889 8 249 37 370 149 621 97 216
210 384 373 553 168 175 333 295 531 388 313 147 651 203 953 158z m-2056
-2324 c124 -327 366 -594 685 -754 82 -41 254 -101 320 -112 55 -9 53 -20 -5
-27 -171 -22 -735 -109 -817 -126 -55 -12 -145 -37 -200 -56 l-101 -34 -92 92
-92 92 34 101 c46 132 68 243 116 569 48 335 69 466 75 485 3 8 16 -25 29 -75
12 -49 34 -119 48 -155z m-238 -1300 l-55 -55 -127 127 -128 128 55 55 55 55
127 -127 128 -128 -55 -55z m-472 -472 l-318 -318 -127 127 -128 128 317 317
318 318 127 -127 128 -128 -317 -317z"/>
<path d="M3240 4670 c-372 -66 -686 -233 -950 -506 -270 -279 -427 -583 -485
-939 -34 -210 -12 -484 55 -667 187 -512 683 -818 1243 -768 291 26 554 119
807 288 134 89 350 296 449 430 209 286 331 643 331 970 0 491 -250 897 -674
1098 -223 105 -514 140 -776 94z m493 -146 l78 -17 -83 -84 -83 -83 -97 97
c-53 53 -94 101 -91 106 8 14 183 2 276 -19z m-610 -116 l-123 -123 -60 60
c-33 33 -60 63 -60 66 0 16 299 116 355 119 5 0 -45 -55 -112 -122z m912 1
c86 -50 154 -101 155 -114 0 -13 -232 -245 -245 -245 -6 0 -53 43 -105 95
l-95 95 105 105 c58 58 107 105 110 105 3 0 37 -18 75 -41z m-587 -69 c50 -49
92 -93 92 -97 0 -4 -55 -63 -122 -130 l-123 -123 -97 97 -98 98 122 122 c68
68 125 123 128 123 3 0 47 -41 98 -90z m-625 -78 l77 -77 -128 -128 -127 -127
-99 99 -99 99 71 57 c68 56 210 155 222 155 3 0 40 -35 83 -78z m1520 -125
c22 -28 55 -81 74 -115 l36 -64 -107 -106 -106 -107 -95 95 c-52 52 -95 99
-95 105 0 13 232 245 245 245 5 0 27 -24 48 -53z m-623 -322 l-125 -125 -100
100 -100 100 125 125 125 125 100 -100 100 -100 -125 -125z m-620 170 l95 -95
-128 -128 -127 -127 -97 98 -98 97 125 125 c69 69 127 125 130 125 3 0 48 -43
100 -95z m-650 -60 l95 -95 -128 -127 -127 -128 -75 75 c-41 41 -75 80 -75 86
0 28 187 284 208 284 4 0 50 -43 102 -95z m1595 -184 l96 -95 -125 -125 -126
-126 -100 100 -100 100 122 122 c68 68 126 122 130 121 4 -2 50 -45 103 -97z
m502 -168 c9 -142 8 -143 -107 -28 l-100 100 83 83 82 83 18 -73 c9 -40 20
-114 24 -165z m-1179 -110 l-128 -128 -100 100 -100 100 127 127 128 128 100
-100 100 -100 -127 -127z m-655 -55 l-128 -128 -97 97 -98 98 127 127 128 128
97 -97 98 -98 -127 -127z m-578 132 l60 -60 -120 -120 c-66 -66 -121 -116
-123 -111 -10 29 97 351 117 351 4 0 33 -27 66 -60z m2205 -95 l95 -95 -125
-125 -125 -125 -97 97 -98 98 122 122 c68 68 125 123 128 123 3 0 48 -43 100
-95z m-647 -53 l97 -97 -128 -128 -127 -127 -100 100 -100 100 125 125 c69 69
127 125 130 125 3 0 49 -44 103 -98z m-651 -59 l98 -98 -122 -122 c-68 -68
-127 -123 -133 -123 -6 0 -53 43 -105 95 l-95 95 125 125 c69 69 127 125 130
125 2 0 49 -44 102 -97z m-645 -55 l93 -93 -127 -127 -128 -128 -97 97 -98 98
122 122 c68 68 127 123 133 123 5 0 51 -42 102 -92z m2109 -141 c-28 -106 -84
-257 -95 -257 -3 0 -33 27 -66 60 l-60 60 120 120 c65 66 121 118 123 116 2
-3 -8 -47 -22 -99z m-516 -42 l95 -95 -128 -128 -127 -127 -97 98 -98 97 125
125 c69 69 127 125 130 125 3 0 48 -43 100 -95z m-682 -282 l-128 -128 -95 95
c-52 52 -95 99 -95 105 0 5 55 65 122 132 l123 123 100 -100 100 -100 -127
-127z m-621 175 c51 -51 93 -97 93 -103 0 -6 -55 -65 -123 -133 l-122 -122
-100 100 -100 100 125 125 c69 69 127 125 130 125 2 0 46 -42 97 -92z m-647
-63 l95 -95 -80 -80 c-53 -54 -82 -76 -86 -67 -26 46 -53 337 -31 337 4 0 50
-43 102 -95z m2287 -212 c-21 -39 -131 -190 -170 -231 l-31 -32 -98 97 -98 98
127 127 128 128 78 -79 79 -78 -15 -30z m-724 -195 l-128 -128 -97 97 -98 98
127 127 128 128 97 -97 98 -98 -127 -127z m-613 167 l95 -95 -128 -127 -127
-128 -100 100 -100 100 122 122 c68 68 127 123 133 123 6 0 53 -43 105 -95z
m-680 -280 l-124 -125 -24 23 c-25 23 -101 141 -123 190 -12 27 -11 30 92 133
l104 104 100 -100 100 -100 -125 -125z m1620 39 l95 -96 -50 -44 c-27 -25 -93
-74 -145 -110 l-94 -64 -81 80 -80 80 125 125 c69 69 127 125 130 125 3 0 48
-43 100 -96z m-560 -149 c0 -5 -55 -65 -122 -132 l-123 -123 -97 97 -98 98
127 127 128 128 92 -92 c51 -51 93 -97 93 -103z m-737 37 l97 -97 -103 -103
c-56 -56 -107 -102 -113 -102 -17 0 -176 98 -207 128 l-27 26 122 123 c68 68
125 123 128 123 3 0 49 -44 103 -98z m909 -199 c32 -32 58 -60 58 -64 0 -18
-296 -119 -350 -119 -8 0 39 54 105 120 66 66 122 120 125 120 2 0 30 -26 62
-57z m-612 -98 c63 -63 91 -98 84 -105 -9 -9 -211 3 -246 14 -7 3 -33 10 -57
16 l-44 12 79 79 c43 43 81 79 84 79 3 0 48 -43 100 -95z"/>
<path d="M3527 1295 c-173 -48 -326 -197 -379 -370 -32 -102 -30 -235 4 -333
34 -95 76 -158 153 -230 105 -98 216 -142 365 -142 158 0 280 50 390 160 209
209 214 544 11 760 -65 70 -149 123 -240 150 -75 24 -228 26 -304 5z m313
-157 c30 -15 70 -40 89 -56 l34 -28 -59 -17 c-93 -26 -218 -36 -314 -26 -81 8
-186 31 -197 43 -8 8 34 42 81 67 80 43 108 49 211 46 85 -2 108 -6 155 -29z
m-365 -253 c151 -33 365 -20 504 29 24 9 50 16 57 16 19 0 44 -93 44 -165 0
-72 -25 -165 -44 -165 -7 0 -32 7 -55 15 -180 63 -459 61 -632 -4 l-47 -18
-11 23 c-25 55 -34 150 -22 214 7 34 17 72 23 85 l10 22 47 -18 c26 -9 83 -25
126 -34z m351 -376 c34 -5 78 -15 99 -22 l38 -13 -41 -32 c-79 -63 -125 -77
-247 -77 -103 0 -114 2 -175 32 -59 29 -110 64 -110 76 0 10 129 40 200 47 81
7 139 4 236 -11z"/>
</g>
</svg>
